<?xml version="1.0" encoding="UTF-8"?><svg id="Capa_2" xmlns="http://www.w3.org/2000/svg" viewBox="0 0 864.51 121.87"><defs><style>.cls-1{fill:none;}.cls-2{fill:#f49d50;}.cls-3{fill:#a81452;}</style></defs><g id="Capa_3"><path class="cls-3" d="M155.16,58.01c6.87,0,8.11-2.59,9.01-7.93l2.94.27c-.36,3.3-.62,6.6-.62,10.25,0,2.85.18,6.06.62,9.09l-2.94.27c-.89-5.8-1.96-8.38-8.92-8.38h-7.85c0,10.97,0,18.19.53,21.58.62,4.01,2.68,5.26,8.29,5.26,13.28,0,17.65-7.31,20.77-16.05l3.12.8c-1.78,7.22-2.94,12.48-4.01,19.26-9.01-.27-17.39-.45-25.95-.45-6.15,0-17.74.09-23.18.27v-3.03c4.81,0,6.51-.53,7.04-4.46.27-1.69.44-6.6.44-21.84,0-17.56-.18-20.69-.44-22.74-.25-1.94-.75-3.9-2.73-4.67-1.22-.47-2.79-.55-3.18.12-.45.79,1.21,1.75,1.25,3.59.04,2.32-2.54,3.99-2.75,4.13-1.95,1.22-4.68,1.36-6.75,0-.45-.3-1.98-1.44-2.5-3.58-.35-1.45-.1-3.05.75-4.27.72-1.04,1.81-1.76,2.96-2.29,4.51-2.09,10.26-1.12,15.1-1.06,4.81.06,9.63.1,14.44.1,8.74,0,16.23-.18,23.98-.53.36,4.81,1.07,9.99,1.87,15.07l-2.94.71c-2.59-8.11-6.51-11.77-17.12-11.77-2.23,0-5.62.18-8.83.8-.18,6.87-.18,14.62-.18,21.49h7.76Z"/><path class="cls-3" d="M202.41,92.25c-3.66-.18-7.58-.27-11.86-.27s-8.2.09-11.77.27v-3.03c3.92-.18,5.17-.36,5.53-3.3.18-1.52.36-5.35.36-25.95s-.18-24.07-.45-25.23c-.53-2.14-2.32-2.67-5.08-2.94v-2.85c5.79-.53,11.5-1.78,16.94-3.66l.8.62c-.27,10.43-.36,16.58-.36,32.45,0,22.74.18,25.77.36,26.93.53,3.21,1.78,3.83,5.53,3.92v3.03Z"/><path class="cls-3" d="M263.5,81.19c0,7.04,1.07,7.85,5.79,8.02v3.03c-3.57-.18-7.49-.27-11.68-.27s-8.11.09-11.68.27v-3.03c4.01-.09,5.17-.62,5.44-5.79.09-1.87.27-6.24.27-8.83,0-5.62-.36-9.81-1.34-12.57-.89-2.76-2.59-4.46-5.26-4.46s-4.73,1.6-6.33,4.1c-1.96,3.12-2.76,7.13-2.76,13.55,0,5.35.18,8.47.53,10.43.54,3.03,1.69,3.57,5.26,3.57v3.03c-3.66-.18-7.22-.27-11.41-.27s-8.47.09-12.04.27v-3.03c3.83-.18,5.08-.36,5.44-3.3.18-1.52.36-5.35.36-25.95s-.18-24.07-.45-25.23c-.45-2.14-2.23-2.67-4.99-2.94v-2.85c5.8-.53,11.41-1.78,16.94-3.66l.8.62c-.36,10.43-.45,18.46-.45,33.43l.27.09c2.94-4.99,8.2-8.11,14.8-8.11,4.9,0,8.56,1.69,10.61,4.9,2.05,3.3,2.32,7.58,2.32,11.41,0,4.72-.45,9.09-.45,13.55Z"/><path class="cls-3" d="M266.13,72.36c0-12.39,9.09-21.04,22.74-21.04s22.74,8.2,22.74,20.69-9.18,21.04-22.91,21.04-22.56-8.2-22.56-20.69ZM298.67,72.45c0-9.45-3.21-17.21-10.07-17.21-7.31,0-9.63,9.01-9.63,16.67,0,9.45,3.21,17.21,10.07,17.21,7.31,0,9.63-9.01,9.63-16.67Z"/><path class="cls-3" d="M387.13,72.36c0-12.39,9.09-21.04,22.74-21.04s22.74,8.2,22.74,20.69-9.18,21.04-22.91,21.04-22.56-8.2-22.56-20.69ZM419.68,72.45c0-9.45-3.21-17.21-10.07-17.21-7.31,0-9.63,9.01-9.63,16.67,0,9.45,3.21,17.21,10.07,17.21,7.31,0,9.63-9.01,9.63-16.67Z"/><path class="cls-1" d="M468.1,55.78c-5.44,0-10.43,5.08-10.43,16.05s4.99,15.69,9.63,15.69c2.85,0,6.15-1.69,8.74-5.8v-10.34c0-6.15-.36-9.45-1.43-11.59-1.43-3.03-4.01-4.01-6.51-4.01Z"/><path class="cls-3" d="M484.16,72.92c0-4.47,1.38-8.61,3.73-12.04,0-.3,0-.6,0-.91,0-19.7.18-27.28.53-34.06l-.8-.62c-5.35,1.78-11.23,3.03-17.12,3.66v2.85c2.23.18,4.19.62,4.81,2.23.45,1.07.71,4.37.71,20.33l-.18.09c-2.41-1.96-6.06-3.12-10.16-3.12-5.44,0-10.16,1.87-13.73,4.99-5.26,4.64-7.22,11.68-7.22,17.3s2.05,11.23,5.8,14.89c2.85,2.76,6.78,4.55,11.77,4.55,6.06,0,10.97-2.76,13.82-6.24l.18.09.09,5.79.89.36c4.26-1.22,9.63-2.52,15.11-3.33-5-3.9-8.23-9.97-8.23-16.8ZM476.03,81.73c-2.59,4.1-5.88,5.8-8.74,5.8-4.64,0-9.63-4.55-9.63-15.69s4.99-16.05,10.43-16.05c2.5,0,5.08.98,6.51,4.01,1.07,2.14,1.43,5.44,1.43,11.59v10.34Z"/><path class="cls-3" d="M528.34,85.47l-2.23-2.32c-1.13,1.21-2.48,2.26-4.01,3.09-2.45,3.06-5.73,5.41-9.5,6.75,8.06-.5,12.83-4.28,15.74-7.52Z"/><path class="cls-3" d="M509.97,51.32c-1.43,0-2.77.12-4.05.3-12.14,1.72-17.71,11.13-17.71,20.65,0,12.66,9.81,20.77,22.56,20.77.63,0,1.23-.02,1.83-.06,3.77-1.34,7.05-3.69,9.5-6.75-1.97,1.06-4.26,1.73-6.87,1.73-9.45,0-14.18-8.38-14.18-18.63v-.71h26.39l.53-.89c-.09-11.77-7.94-16.41-18.01-16.41ZM513.98,65.05h-12.66c.8-5.26,3.03-10.07,8.11-10.07,4.46,0,6.24,3.83,6.24,7.94,0,2.05-.45,2.14-1.69,2.14Z"/><path class="cls-3" d="M550.71,92.25c-3.66-.18-7.58-.27-11.86-.27s-8.2.09-11.77.27v-3.03c3.92-.18,5.17-.36,5.53-3.3.18-1.52.36-5.35.36-25.95s-.18-24.07-.45-25.23c-.53-2.14-2.32-2.67-5.08-2.94v-2.85c5.79-.53,11.5-1.78,16.94-3.66l.8.62c-.27,10.43-.36,16.58-.36,32.45,0,22.74.18,25.77.36,26.93.54,3.21,1.78,3.83,5.53,3.92v3.03Z"/><path class="cls-1" d="M224.66,85.93c-4.45-1.56-9.82,0-12.75,3.7"/><path class="cls-1" d="M746.59,89c.34,2.62.06,5.32-.82,7.82-.87,2.46-2.3,11.56-3.8,13.7-1.25,1.78-2.55,3.54-4.15,5.02"/><path class="cls-2" d="M584.04,115.08c-3.23-.16-7.03-.24-10.51-.24s-7.27.08-10.91.24v-2.75c3.48-.16,4.53-.4,4.93-2.91.32-1.7.4-4.53.4-22.71s0-21.66-.57-23.19c-.4-1.21-1.21-1.86-3.96-2.1v-2.59c5.01-.48,9.86-1.7,13.9-3.15l.89.32.16,4.85.16.08c2.67-3.15,6.95-5.25,11.96-5.25,4.12,0,7.92,1.45,10.91,4.28,3.47,3.31,5.49,8.32,5.49,13.82s-2.1,11.15-6.54,15.11c-3.48,3.07-7.68,4.61-11.96,4.61s-7.92-1.45-9.53-2.99l-.16.08c0,11.07,0,16.32.32,18.26.4,2.83,1.62,3.39,5.01,3.48v2.75ZM578.7,76.77c0,3.64.24,6.79,1.78,9.21,1.05,1.62,2.83,3.31,5.9,3.31,5.74,0,8.81-6.38,8.81-14.14,0-8.16-3.31-14.38-8.89-14.38-3.15,0-5.9,1.86-7.6,4.61v11.39Z"/><path class="cls-2" d="M608.44,58.76c5.17-.48,10.59-1.53,15.19-3.15l.73.57c-.16,3.72-.32,9.21-.32,17.94s.16,11.23.24,12.12c.4,3.07,1.54,3.64,5.01,3.72v2.75c-3.23-.16-6.79-.24-10.59-.24s-7.52.08-10.75.24v-2.75c2.99-.08,4.44-.32,4.85-2.18.24-1.13.48-3.23.48-12.28,0-7.84-.16-10.18-.4-11.47-.4-1.86-1.86-2.34-4.44-2.67v-2.59ZM618.54,35.81c3.64,0,6.46,2.91,6.46,6.55s-2.83,6.55-6.46,6.55-6.55-2.91-6.55-6.55,2.91-6.55,6.55-6.55Z"/><path class="cls-2" d="M753.8,58.76c5.17-.48,10.59-1.53,15.19-3.15l.73.57c-.16,3.72-.32,9.21-.32,17.94s.16,11.23.24,12.12c.4,3.07,1.54,3.64,5.01,3.72v2.75c-3.23-.16-6.79-.24-10.59-.24s-7.52.08-10.75.24v-2.75c2.99-.08,4.44-.32,4.85-2.18.24-1.13.48-3.23.48-12.28,0-7.84-.16-10.18-.4-11.47-.4-1.86-1.86-2.34-4.44-2.67v-2.59ZM763.9,35.81c3.64,0,6.46,2.91,6.46,6.55s-2.83,6.55-6.46,6.55-6.55-2.91-6.55-6.55,2.91-6.55,6.55-6.55Z"/><path class="cls-2" d="M793.07,63.04l.24.08c2.59-4.44,7.43-7.43,13.41-7.43,4.52,0,7.76,1.54,9.62,4.45,1.86,2.99,2.1,6.87,2.1,10.42,0,4.2-.32,8.24-.32,12.12,0,6.46.89,7.19,5.25,7.35v2.75c-3.23-.16-6.79-.24-10.67-.24s-7.27.08-10.59.24v-2.75c3.8-.08,4.61-.65,4.93-5.25.16-1.86.32-5.58.32-8.65,0-4.53-.4-8.08-1.29-10.67-.89-2.67-2.34-4.04-4.69-4.04s-4.36,1.37-5.82,3.64c-1.94,2.91-2.42,7.11-2.42,11.72,0,4.28.08,8.4.4,10.1.48,2.59,1.7,3.15,4.77,3.15v2.75c-3.31-.16-6.95-.24-10.75-.24s-7.27.08-10.5.24v-2.75c3.15-.08,4.36-.4,4.85-2.18.32-1.13.48-3.07.48-11.96,0-9.37-.16-11.31-.48-12.28-.4-1.29-1.37-1.94-4.04-2.18v-2.59c5.33-.57,10.02-1.78,14.14-3.15l.81.57.24,6.79Z"/><path class="cls-2" d="M823.29,74.75c0-11.23,8.24-19.07,20.61-19.07s20.61,7.43,20.61,18.75-8.32,19.07-20.77,19.07-20.45-7.43-20.45-18.75ZM852.79,74.84c0-8.57-2.91-15.6-9.13-15.6-6.63,0-8.73,8.16-8.73,15.11,0,8.57,2.91,15.6,9.13,15.6,6.63,0,8.73-8.16,8.73-15.11Z"/><path class="cls-3" d="M384.68,82.48c0-4.28.36-8.74.36-13.37,0-3.92-.27-8.2-2.32-11.5-2.05-3.21-5.62-4.9-10.61-4.9-6.6,0-11.95,3.3-14.8,8.2l-.27-.09-.27-7.49-.89-.62c-2.3.77-4.75,1.48-7.38,2.09,1.38,1.26,2.26,3.05,2.26,5.07,0,3.35-2.4,6.13-5.57,6.74.05,1.94.07,4.61.07,8.39,0,9.81-.18,11.95-.53,13.2-.53,1.96-1.87,2.32-5.35,2.41v3.03c3.57-.18,7.4-.27,11.59-.27s8.2.09,11.86.27v-3.03c-3.39,0-4.72-.62-5.26-3.48-.36-1.87-.45-6.42-.45-11.15,0-5.08.54-9.72,2.68-12.93,1.6-2.5,3.83-4.01,6.42-4.01s4.19,1.51,5.17,4.46c.98,2.85,1.43,6.78,1.43,11.77,0,3.39-.18,7.49-.36,9.54-.36,5.08-1.25,5.71-5.44,5.79v3.03c3.66-.18,7.49-.27,11.68-.27s8.2.09,11.77.27v-3.03c-4.81-.18-5.79-.98-5.79-8.11Z"/><path class="cls-3" d="M345.39,55.41c-.72-1-1.75-1.79-3.03-2.25-.81-.29-1.72-.47-2.72-.47-5.44,0-9.72,4.64-12.39,9.54l-.18-.09-.27-8.83-.89-.62c-4.81,1.69-10.07,2.85-15.6,3.48v2.85c2.94.27,4.01.98,4.46,2.41.36,1.07.53,3.21.53,13.55,0,9.81-.18,11.95-.53,13.2-.53,1.96-1.87,2.32-5.35,2.41v3.03c3.92-.18,7.85-.27,11.86-.27s8.03.09,11.95.27v-3.03c-3.48,0-5.08-.45-5.62-3.39-.36-1.87-.45-4.64-.45-8.02,0-5.62.45-9.63,1.6-12.75.98-2.85,2.5-4.81,4.64-4.81,1.78,0,3.21,1.43,4.19,4.01.53.09,1.25.09,1.87.09.26,0,.51-.04.76-.06,1.96-.17,3.67-.97,4.83-2.28.95-1.08,1.54-2.48,1.54-4.17,0-1.41-.43-2.72-1.21-3.79Z"/><path class="cls-2" d="M718.49,49.62c2.99,0,5.17-2.26,5.17-5.17s-2.18-5.17-5.17-5.17-5.17,2.26-5.17,5.17,2.26,5.17,5.17,5.17Z"/><path class="cls-2" d="M744.43,85.26c-.16-.97-.32-3.88-.32-13.01,0-6.95.08-11.48.32-16l-.81-.57c-4.69,1.62-9.78,2.59-15.11,3.15v2.59c2.59.32,3.88.65,4.44,2.59.32,1.05.4,3.8.4,6.46,0,6.95-.48,10.59-2.1,13.49-1.46,2.67-3.64,4.04-5.82,4.04-2.34,0-3.96-1.53-4.77-4.2-.89-2.75-.97-6.55-.97-11.55,0-3.72.08-11.07.24-16l-.73-.57c-3.79,1.29-7.69,2.2-11.81,2.77,3.56,1.82,6,5.52,6,9.79,0,3.71-1.84,6.98-4.65,8.98-.02,1.22-.04,2.39-.04,3.44,0,2.67.08,5.9,1.86,8.65,1.86,2.83,5.01,4.2,9.13,4.2,5.9,0,10.83-2.83,13.5-7.35h.16l.32,7.03.81.48c4.04-1.21,8.97-2.5,14.06-3.23v-2.5c-2.59-.32-3.8-.73-4.12-2.67Z"/><path class="cls-2" d="M734.41,49.62c2.99,0,5.17-2.26,5.17-5.17s-2.18-5.17-5.17-5.17-5.09,2.26-5.09,5.17,2.18,5.17,5.09,5.17Z"/><path class="cls-1" d="M692.15,78.53c.31.06.63.1.97.1,1.32,0,2.36-.47,3.17-1.24,1.92-1.82,2.56-5.33,2.56-8.45,0-4.24-1.18-7.66-3.31-9.3-.87-.67-1.9-1.05-3.07-1.05-.19,0-.36.02-.54.04-3.93.43-5.2,5.56-5.2,9.74,0,5.47,2.03,9.51,5.41,10.16Z"/><path class="cls-2" d="M672.8,84.5c-.02-.56-.03-1.15-.03-1.83,0-3.88.32-7.92.32-12.12,0-3.56-.24-7.43-2.1-10.42-1.86-2.91-5.09-4.45-9.62-4.45-5.98,0-10.83,2.99-13.41,7.43l-.24-.08-.24-6.79-.81-.57c-4.12,1.37-8.81,2.59-14.14,3.15v2.59c2.67.24,3.64.89,4.04,2.18.32.97.48,2.91.48,12.28,0,8.89-.16,10.83-.48,11.96-.48,1.78-1.7,2.1-4.85,2.18v2.75c3.23-.16,6.71-.24,10.5-.24s7.43.08,10.75.24v-2.75c-3.07,0-4.28-.57-4.77-3.15-.32-1.7-.4-5.82-.4-10.1,0-4.61.48-8.81,2.42-11.72,1.45-2.26,3.47-3.64,5.82-3.64s3.8,1.37,4.69,4.04c.89,2.59,1.29,6.14,1.29,10.67,0,3.07-.16,6.79-.32,8.65-.32,4.61-1.13,5.17-4.93,5.25v2.75c3.31-.16,6.79-.24,10.59-.24.7,0,1.37,0,2.05.01.07-3.22,1.36-6.1,3.4-8.04Z"/><path class="cls-2" d="M685.46,79.85c1.83.5,3.82.79,5.94.77h4.13c1.42,0,3.84-.17,6.48-1.39,4.06-1.88,6.1-5.05,6.83-6.32.06-2.43.11-4.67.11-6.06,0-3.56-.32-5.01-4.77-5.41v-2.46c-1.13-.67-2.33-1.19-3.54-1.57-.41-.13-.81-.24-1.22-.33v-.16c.68-.04,1.38-.12,2.06-.24,4.59-.76,8.93-3.09,8.93-6.96,0-3.56-2.99-5.58-5.82-5.58-2.1,0-4.36,1.13-4.93,2.91.48.57.81,1.7.81,3.07,0,3.23-1.94,4.36-2.99,4.77-2.02.81-5.41.81-7.03.89-9.13.48-14.71,6.55-14.71,12.93,0,.37-.11,2.28.94,4.51.18.38,1.78,3.72,5.23,5.28.41.18.72.29.93.42l3.05.34c-.14.18-.28.39-.44.61ZM691.93,58.64c.18-.02.35-.04.54-.04,1.17,0,2.2.38,3.07,1.05,2.13,1.63,3.31,5.05,3.31,9.3,0,3.12-.64,6.64-2.56,8.45-.81.77-1.85,1.24-3.17,1.24-.34,0-.66-.04-.97-.1-3.38-.65-5.41-4.69-5.41-10.16,0-4.18,1.27-9.3,5.2-9.74Z"/><path class="cls-2" d="M685.9,79.24l-3.05-.34s.08.05.11.08c.79.35,1.63.63,2.51.87.15-.22.3-.42.44-.61Z"/><path class="cls-2" d="M682.73,78.88c.07.03.15.06.23.09-.03-.03-.07-.05-.11-.08h-.12Z"/><path class="cls-2" d="M685.46,79.85c-.88-.24-1.72-.52-2.51-.87.09.07.16.16.19.27.18.79-1.61,1.65-3.52,2.8,1.37.12,2.68.58,3.84,1.29.66-1.43,1.38-2.6,1.99-3.49Z"/><path class="cls-2" d="M739.53,105.37c-3.78-4.49-9.44-5.18-12.38-5.5-10.66-1.15-13.63,4.43-27.5,5.5-6.28.48-11.67.82-15.13-2.75-.09-.1-.17-.21-.26-.31-3.92-4.43-2.75-11.79-2.49-13.45.34-2.14.98-3.98,1.7-5.53-1.17-.72-2.47-1.17-3.84-1.29-.67.4-1.36.84-1.98,1.33-1.93,1.5-3.15,3.38-3.98,5.21-.67,1.45-1.09,2.86-1.4,4.01-.04.13-.08.28-.11.41-.08.31-.78,3.01-.83,6.44-.06,3.67.61,8.16,3.58,11.44,6.55,7.24,19.71,5.1,26.13,2.75,3.45-1.26,4.66-2.46,12.38-5.5,10.14-3.99,11.89-3.43,12.38-2.75,1.12,1.57-3.69,4.88-2.75,9.63.66,3.34,3.55,5.16,4.13,5.5,4.85,2.9,12.89,1.07,15.13-4.13,2.16-5.01-2.27-10.43-2.75-11Z"/><path class="cls-2" d="M704.18,58.96v2.46c4.44.4,4.77,1.86,4.77,5.41,0,1.4-.06,3.63-.11,6.06.6-1.38.93-2.91.93-4.61,0-4.42-2.47-7.47-5.58-9.33Z"/></g><g id="Capa_5"><path class="cls-3" d="M68.84,86.35c9.46-10.86-.55-26.8-14.31-22.96-8.49,2.37-9.93,10.11-11.21,17.71l-.21.35c-4.2-2.32-8.54-3.47-13.36-2.56-1.99.37-3.73,1.25-5.76,1.58-3.9.62-7.95.36-11.88.29l-12.11-.9,15.75-6.74c.54-4.81,2.19-9.52,4.71-13.63,12.22-20.01,40.97-21.79,55.52-3.29,14.2,18.06,6.52,45.21-15.09,52.85-.35.12-1.7.59-1.94.43-.51-.36-1.33-5-1.38-5.82-.19-3.32.88-5.76,2.57-8.5,2.44-3.95,5.81-5.5,8.7-8.81Z"/><path class="cls-3" d="M23.65,83.68c.63,2.29.86,4.66,1.79,6.86,1.37,3.23,4.36,6.29,7.77,7.31,2.16.64,4.11.44,6.3.62,7.71.66,15.1,3.57,16.82,11.9-5.42.97-10.66.87-15.97-.56-12.41-3.34-21.88-13.77-24.3-26.35l7.6.22Z"/><path class="cls-3" d="M59.2,70.42c2.22-.2,4.8.64,6.11,2.5l-1.72,1.72c-2.33-2.3-5.48-2.01-7.89,0l-1.59-1.84c1.07-1.37,3.38-2.23,5.1-2.38Z"/><path class="cls-3" d="M51.72,30.14c-.13.06-.21.32-.39.38.31.75,1.32.54,2.07.76,13.24,3.8,23.85,8.63,33.34,18.77.46.49,3.1,3.42,3.15,3.75.07.48-.18,1.02-.45,1.42-.94.65-5.08,5.73-5.82,5.65-2.69-4.2-5.5-8.33-9.3-11.64-9.89-8.63-23.04-11.24-35.52-7.5-.77.23-4.99,1.97-5.27,1.82-.24-.13-.14-.56-.09-.8.54-2.71,3.01-7.53,4.4-10.06.61-1.11,2.26-2.88,2.05-4.01-.14-.78-1.18-1.02-1.69-1.48-6.91-6.18-9.69-16.69-1.96-23.62,9.06-8.11,23.99-1.58,24.03,10.57,0,.79-.53,2.82-.1,3.24.98.9,1.48.19,2.22.06,13.14-2.35,30.63-1.58,41.74,6.68,10.48,7.79,5.65,25.14-7.16,27.43-.45.08-2.91.38-3.2.33-1.04-.18-2.38-2.23-3.15-3-8.38-8.42-18.71-14.66-30.34-17.63-.9-.23-8.16-1.3-8.56-1.12Z"/></g></svg>